<svg height="200" width="200" xmlns="http://www.w3.org/2000/svg"><g shape-rendering="optimizeSpeed"><path d="m0 0h200v200h-200z" fill="#fff"/><path d="m12 12h7v7h-7z"/><path d="m19 12h7v7h-7z"/><path d="m26 12h7v7h-7z"/><path d="m33 12h7v7h-7z"/><path d="m40 12h7v7h-7z"/><path d="m47 12h7v7h-7z"/><path d="m54 12h7v7h-7z"/><path d="m68 12h7v7h-7z"/><path d="m89 12h7v7h-7z"/><path d="m96 12h7v7h-7z"/><path d="m103 12h7v7h-7z"/><path d="m138 12h7v7h-7z"/><path d="m145 12h7v7h-7z"/><path d="m152 12h7v7h-7z"/><path d="m159 12h7v7h-7z"/><path d="m166 12h7v7h-7z"/><path d="m173 12h7v7h-7z"/><path d="m180 12h7v7h-7z"/><path d="m12 19h7v7h-7z"/><path d="m54 19h7v7h-7z"/><path d="m75 19h7v7h-7z"/><path d="m82 19h7v7h-7z"/><path d="m110 19h7v7h-7z"/><path d="m124 19h7v7h-7z"/><path d="m138 19h7v7h-7z"/><path d="m180 19h7v7h-7z"/><path d="m12 26h7v7h-7z"/><path d="m26 26h7v7h-7z"/><path d="m33 26h7v7h-7z"/><path d="m40 26h7v7h-7z"/><path d="m54 26h7v7h-7z"/><path d="m82 26h7v7h-7z"/><path d="m96 26h7v7h-7z"/><path d="m103 26h7v7h-7z"/><path d="m117 26h7v7h-7z"/><path d="m124 26h7v7h-7z"/><path d="m138 26h7v7h-7z"/><path d="m152 26h7v7h-7z"/><path d="m159 26h7v7h-7z"/><path d="m166 26h7v7h-7z"/><path d="m180 26h7v7h-7z"/><path d="m12 33h7v7h-7z"/><path d="m26 33h7v7h-7z"/><path d="m33 33h7v7h-7z"/><path d="m40 33h7v7h-7z"/><path d="m54 33h7v7h-7z"/><path d="m96 33h7v7h-7z"/><path d="m103 33h7v7h-7z"/><path d="m124 33h7v7h-7z"/><path d="m138 33h7v7h-7z"/><path d="m152 33h7v7h-7z"/><path d="m159 33h7v7h-7z"/><path d="m166 33h7v7h-7z"/><path d="m180 33h7v7h-7z"/><path d="m12 40h7v7h-7z"/><path d="m26 40h7v7h-7z"/><path d="m33 40h7v7h-7z"/><path d="m40 40h7v7h-7z"/><path d="m54 40h7v7h-7z"/><path d="m75 40h7v7h-7z"/><path d="m89 40h7v7h-7z"/><path d="m103 40h7v7h-7z"/><path d="m110 40h7v7h-7z"/><path d="m124 40h7v7h-7z"/><path d="m138 40h7v7h-7z"/><path d="m152 40h7v7h-7z"/><path d="m159 40h7v7h-7z"/><path d="m166 40h7v7h-7z"/><path d="m180 40h7v7h-7z"/><path d="m12 47h7v7h-7z"/><path d="m54 47h7v7h-7z"/><path d="m82 47h7v7h-7z"/><path d="m96 47h7v7h-7z"/><path d="m103 47h7v7h-7z"/><path d="m124 47h7v7h-7z"/><path d="m138 47h7v7h-7z"/><path d="m180 47h7v7h-7z"/><path d="m12 54h7v7h-7z"/><path d="m19 54h7v7h-7z"/><path d="m26 54h7v7h-7z"/><path d="m33 54h7v7h-7z"/><path d="m40 54h7v7h-7z"/><path d="m47 54h7v7h-7z"/><path d="m54 54h7v7h-7z"/><path d="m68 54h7v7h-7z"/><path d="m82 54h7v7h-7z"/><path d="m96 54h7v7h-7z"/><path d="m110 54h7v7h-7z"/><path d="m124 54h7v7h-7z"/><path d="m138 54h7v7h-7z"/><path d="m145 54h7v7h-7z"/><path d="m152 54h7v7h-7z"/><path d="m159 54h7v7h-7z"/><path d="m166 54h7v7h-7z"/><path d="m173 54h7v7h-7z"/><path d="m180 54h7v7h-7z"/><path d="m68 61h7v7h-7z"/><path d="m82 61h7v7h-7z"/><path d="m89 61h7v7h-7z"/><path d="m103 61h7v7h-7z"/><path d="m12 68h7v7h-7z"/><path d="m19 68h7v7h-7z"/><path d="m33 68h7v7h-7z"/><path d="m40 68h7v7h-7z"/><path d="m54 68h7v7h-7z"/><path d="m75 68h7v7h-7z"/><path d="m82 68h7v7h-7z"/><path d="m89 68h7v7h-7z"/><path d="m117 68h7v7h-7z"/><path d="m138 68h7v7h-7z"/><path d="m180 68h7v7h-7z"/><path d="m12 75h7v7h-7z"/><path d="m19 75h7v7h-7z"/><path d="m26 75h7v7h-7z"/><path d="m33 75h7v7h-7z"/><path d="m47 75h7v7h-7z"/><path d="m61 75h7v7h-7z"/><path d="m75 75h7v7h-7z"/><path d="m96 75h7v7h-7z"/><path d="m103 75h7v7h-7z"/><path d="m110 75h7v7h-7z"/><path d="m117 75h7v7h-7z"/><path d="m145 75h7v7h-7z"/><path d="m152 75h7v7h-7z"/><path d="m159 75h7v7h-7z"/><path d="m166 75h7v7h-7z"/><path d="m173 75h7v7h-7z"/><path d="m19 82h7v7h-7z"/><path d="m40 82h7v7h-7z"/><path d="m47 82h7v7h-7z"/><path d="m54 82h7v7h-7z"/><path d="m61 82h7v7h-7z"/><path d="m82 82h7v7h-7z"/><path d="m89 82h7v7h-7z"/><path d="m103 82h7v7h-7z"/><path d="m117 82h7v7h-7z"/><path d="m124 82h7v7h-7z"/><path d="m145 82h7v7h-7z"/><path d="m159 82h7v7h-7z"/><path d="m180 82h7v7h-7z"/><path d="m12 89h7v7h-7z"/><path d="m26 89h7v7h-7z"/><path d="m40 89h7v7h-7z"/><path d="m47 89h7v7h-7z"/><path d="m61 89h7v7h-7z"/><path d="m68 89h7v7h-7z"/><path d="m75 89h7v7h-7z"/><path d="m82 89h7v7h-7z"/><path d="m89 89h7v7h-7z"/><path d="m96 89h7v7h-7z"/><path d="m117 89h7v7h-7z"/><path d="m124 89h7v7h-7z"/><path d="m159 89h7v7h-7z"/><path d="m166 89h7v7h-7z"/><path d="m173 89h7v7h-7z"/><path d="m180 89h7v7h-7z"/><path d="m12 96h7v7h-7z"/><path d="m33 96h7v7h-7z"/><path d="m47 96h7v7h-7z"/><path d="m54 96h7v7h-7z"/><path d="m68 96h7v7h-7z"/><path d="m75 96h7v7h-7z"/><path d="m89 96h7v7h-7z"/><path d="m96 96h7v7h-7z"/><path d="m117 96h7v7h-7z"/><path d="m138 96h7v7h-7z"/><path d="m145 96h7v7h-7z"/><path d="m180 96h7v7h-7z"/><path d="m12 103h7v7h-7z"/><path d="m19 103h7v7h-7z"/><path d="m47 103h7v7h-7z"/><path d="m110 103h7v7h-7z"/><path d="m117 103h7v7h-7z"/><path d="m124 103h7v7h-7z"/><path d="m131 103h7v7h-7z"/><path d="m152 103h7v7h-7z"/><path d="m173 103h7v7h-7z"/><path d="m12 110h7v7h-7z"/><path d="m19 110h7v7h-7z"/><path d="m33 110h7v7h-7z"/><path d="m54 110h7v7h-7z"/><path d="m75 110h7v7h-7z"/><path d="m82 110h7v7h-7z"/><path d="m89 110h7v7h-7z"/><path d="m96 110h7v7h-7z"/><path d="m103 110h7v7h-7z"/><path d="m117 110h7v7h-7z"/><path d="m131 110h7v7h-7z"/><path d="m138 110h7v7h-7z"/><path d="m152 110h7v7h-7z"/><path d="m159 110h7v7h-7z"/><path d="m166 110h7v7h-7z"/><path d="m173 110h7v7h-7z"/><path d="m180 110h7v7h-7z"/><path d="m12 117h7v7h-7z"/><path d="m26 117h7v7h-7z"/><path d="m33 117h7v7h-7z"/><path d="m68 117h7v7h-7z"/><path d="m82 117h7v7h-7z"/><path d="m89 117h7v7h-7z"/><path d="m145 117h7v7h-7z"/><path d="m159 117h7v7h-7z"/><path d="m166 117h7v7h-7z"/><path d="m180 117h7v7h-7z"/><path d="m12 124h7v7h-7z"/><path d="m33 124h7v7h-7z"/><path d="m40 124h7v7h-7z"/><path d="m47 124h7v7h-7z"/><path d="m54 124h7v7h-7z"/><path d="m61 124h7v7h-7z"/><path d="m68 124h7v7h-7z"/><path d="m75 124h7v7h-7z"/><path d="m82 124h7v7h-7z"/><path d="m96 124h7v7h-7z"/><path d="m103 124h7v7h-7z"/><path d="m124 124h7v7h-7z"/><path d="m131 124h7v7h-7z"/><path d="m138 124h7v7h-7z"/><path d="m145 124h7v7h-7z"/><path d="m152 124h7v7h-7z"/><path d="m166 124h7v7h-7z"/><path d="m173 124h7v7h-7z"/><path d="m68 131h7v7h-7z"/><path d="m75 131h7v7h-7z"/><path d="m82 131h7v7h-7z"/><path d="m89 131h7v7h-7z"/><path d="m96 131h7v7h-7z"/><path d="m103 131h7v7h-7z"/><path d="m124 131h7v7h-7z"/><path d="m152 131h7v7h-7z"/><path d="m166 131h7v7h-7z"/><path d="m173 131h7v7h-7z"/><path d="m12 138h7v7h-7z"/><path d="m19 138h7v7h-7z"/><path d="m26 138h7v7h-7z"/><path d="m33 138h7v7h-7z"/><path d="m40 138h7v7h-7z"/><path d="m47 138h7v7h-7z"/><path d="m54 138h7v7h-7z"/><path d="m75 138h7v7h-7z"/><path d="m82 138h7v7h-7z"/><path d="m89 138h7v7h-7z"/><path d="m124 138h7v7h-7z"/><path d="m138 138h7v7h-7z"/><path d="m152 138h7v7h-7z"/><path d="m180 138h7v7h-7z"/><path d="m12 145h7v7h-7z"/><path d="m54 145h7v7h-7z"/><path d="m75 145h7v7h-7z"/><path d="m89 145h7v7h-7z"/><path d="m103 145h7v7h-7z"/><path d="m110 145h7v7h-7z"/><path d="m124 145h7v7h-7z"/><path d="m152 145h7v7h-7z"/><path d="m173 145h7v7h-7z"/><path d="m180 145h7v7h-7z"/><path d="m12 152h7v7h-7z"/><path d="m26 152h7v7h-7z"/><path d="m33 152h7v7h-7z"/><path d="m40 152h7v7h-7z"/><path d="m54 152h7v7h-7z"/><path d="m68 152h7v7h-7z"/><path d="m75 152h7v7h-7z"/><path d="m82 152h7v7h-7z"/><path d="m89 152h7v7h-7z"/><path d="m96 152h7v7h-7z"/><path d="m110 152h7v7h-7z"/><path d="m117 152h7v7h-7z"/><path d="m124 152h7v7h-7z"/><path d="m131 152h7v7h-7z"/><path d="m138 152h7v7h-7z"/><path d="m145 152h7v7h-7z"/><path d="m152 152h7v7h-7z"/><path d="m12 159h7v7h-7z"/><path d="m26 159h7v7h-7z"/><path d="m33 159h7v7h-7z"/><path d="m40 159h7v7h-7z"/><path d="m54 159h7v7h-7z"/><path d="m68 159h7v7h-7z"/><path d="m82 159h7v7h-7z"/><path d="m89 159h7v7h-7z"/><path d="m96 159h7v7h-7z"/><path d="m110 159h7v7h-7z"/><path d="m124 159h7v7h-7z"/><path d="m131 159h7v7h-7z"/><path d="m138 159h7v7h-7z"/><path d="m173 159h7v7h-7z"/><path d="m180 159h7v7h-7z"/><path d="m12 166h7v7h-7z"/><path d="m26 166h7v7h-7z"/><path d="m33 166h7v7h-7z"/><path d="m40 166h7v7h-7z"/><path d="m54 166h7v7h-7z"/><path d="m75 166h7v7h-7z"/><path d="m82 166h7v7h-7z"/><path d="m89 166h7v7h-7z"/><path d="m103 166h7v7h-7z"/><path d="m131 166h7v7h-7z"/><path d="m152 166h7v7h-7z"/><path d="m159 166h7v7h-7z"/><path d="m166 166h7v7h-7z"/><path d="m173 166h7v7h-7z"/><path d="m180 166h7v7h-7z"/><path d="m12 173h7v7h-7z"/><path d="m54 173h7v7h-7z"/><path d="m68 173h7v7h-7z"/><path d="m75 173h7v7h-7z"/><path d="m131 173h7v7h-7z"/><path d="m145 173h7v7h-7z"/><path d="m152 173h7v7h-7z"/><path d="m166 173h7v7h-7z"/><path d="m173 173h7v7h-7z"/><path d="m180 173h7v7h-7z"/><path d="m12 180h7v7h-7z"/><path d="m19 180h7v7h-7z"/><path d="m26 180h7v7h-7z"/><path d="m33 180h7v7h-7z"/><path d="m40 180h7v7h-7z"/><path d="m47 180h7v7h-7z"/><path d="m54 180h7v7h-7z"/><path d="m68 180h7v7h-7z"/><path d="m75 180h7v7h-7z"/><path d="m82 180h7v7h-7z"/><path d="m96 180h7v7h-7z"/><path d="m124 180h7v7h-7z"/><path d="m138 180h7v7h-7z"/><path d="m159 180h7v7h-7z"/><path d="m180 180h7v7h-7z"/></g></svg>