<svg xmlns="http://www.w3.org/2000/svg" xmlns:xlink="http://www.w3.org/1999/xlink" viewBox="0 0 1116 420"><defs><style>.cls-1{isolation:isolate}.cls-2,.cls-55{fill:#c9b8ad}.cls-3,.cls-57{fill:#0ff}.cls-12,.cls-13,.cls-18,.cls-21,.cls-22,.cls-25,.cls-28,.cls-29,.cls-32,.cls-35,.cls-36,.cls-4,.cls-43,.cls-46,.cls-48,.cls-51,.cls-52,.cls-53,.cls-56,.cls-59,.cls-60,.cls-62,.cls-64,.cls-9{opacity:.35}.cls-12,.cls-13,.cls-21,.cls-22,.cls-23,.cls-28,.cls-29,.cls-35,.cls-36,.cls-4,.cls-41,.cls-46,.cls-48,.cls-51,.cls-52,.cls-53,.cls-56,.cls-59,.cls-60,.cls-61,.cls-62,.cls-64{mix-blend-mode:multiply}.cls-4{fill:url(#linear-gradient)}.cls-38,.cls-5{fill:#953caa}.cls-6{fill:#fff}.cls-42,.cls-7{fill:#ad865c}.cls-37,.cls-38,.cls-39,.cls-7,.cls-8{opacity:.6}.cls-9{fill:url(#linear-gradient-2)}.cls-10{fill:#63386d}.cls-10,.cls-11,.cls-19,.cls-20,.cls-23,.cls-26,.cls-27,.cls-33,.cls-34,.cls-55,.cls-57,.cls-63{fill-rule:evenodd}.cls-11{fill:#441168}.cls-12{fill:url(#linear-gradient-3)}.cls-13{fill:url(#linear-gradient-4)}.cls-14,.cls-23,.cls-41,.cls-50{fill:none;stroke-linecap:round}.cls-14,.cls-50{stroke:#fff}.cls-14{stroke-miterlimit:10;stroke-width:.4px}.cls-15,.cls-24,.cls-30,.cls-40{opacity:.75}.cls-15{fill:url(#radial-gradient)}.cls-16,.cls-39{fill:#a83d56}.cls-17,.cls-37{fill:#3b64ad}.cls-18{fill:url(#linear-gradient-5)}.cls-19{fill:#4188a3}.cls-20{fill:#26404f}.cls-21{fill:url(#linear-gradient-6)}.cls-22{fill:url(#linear-gradient-7)}.cls-23,.cls-41{stroke:#000}.cls-23,.cls-41,.cls-50{stroke-linejoin:round;stroke-width:.8px}.cls-23,.cls-41,.cls-50,.cls-61{opacity:.25}.cls-24{fill:url(#radial-gradient-2)}.cls-25{fill:url(#linear-gradient-8)}.cls-26{fill:#773c4b}.cls-27{fill:#591212}.cls-28{fill:url(#linear-gradient-9)}.cls-29{fill:url(#linear-gradient-10)}.cls-30{fill:url(#radial-gradient-3)}.cls-31{fill:#4b684b}.cls-32{fill:url(#linear-gradient-11)}.cls-33{fill:#759b75}.cls-35{fill:url(#linear-gradient-12)}.cls-36{fill:url(#linear-gradient-13)}.cls-40{fill:url(#radial-gradient-4)}.cls-43{fill:url(#linear-gradient-14)}.cls-44{fill:#1a1a1a}.cls-45{fill:#6d5e50}.cls-46{fill:url(#linear-gradient-15)}.cls-47{fill:#a0938b}.cls-48{fill:url(#linear-gradient-16)}.cls-49{fill:#828282}.cls-51{fill:url(#linear-gradient-17)}.cls-52{fill:url(#linear-gradient-18)}.cls-53{fill:url(#linear-gradient-19)}.cls-54{fill:#d6d68b}.cls-56{fill:url(#linear-gradient-20)}.cls-58{fill:#603813}.cls-59{fill:url(#linear-gradient-21)}.cls-60{fill:url(#linear-gradient-22)}.cls-61{fill:url(#linear-gradient-23)}.cls-62{fill:url(#linear-gradient-24)}.cls-63{fill:#a09288}.cls-64{fill:url(#linear-gradient-25)}</style><linearGradient id="linear-gradient" x1="470.15" y1="119.22" x2="484.73" y2="119.22" gradientUnits="userSpaceOnUse"><stop offset="0" stop-opacity="0"/><stop offset="1"/></linearGradient><linearGradient id="linear-gradient-2" x1="254.97" y1="211.83" x2="312.6" y2="269.46" gradientTransform="matrix(-1, 0, 0, 1, 1031.83, 0)" xlink:href="#linear-gradient"/><linearGradient id="linear-gradient-3" x1="713.84" y1="244.47" x2="723.66" y2="188.81" xlink:href="#linear-gradient"/><linearGradient id="linear-gradient-4" x1="704.12" y1="245.36" x2="711.96" y2="200.88" xlink:href="#linear-gradient"/><radialGradient id="radial-gradient" cx="710.18" cy="170.61" r="13.78" gradientUnits="userSpaceOnUse"><stop offset="0" stop-color="#0ff"/><stop offset=".12" stop-color="#0ff" stop-opacity=".98"/><stop offset=".25" stop-color="#0ff" stop-opacity=".94"/><stop offset=".38" stop-color="#0ff" stop-opacity=".86"/><stop offset=".5" stop-color="#0ff" stop-opacity=".75"/><stop offset=".63" stop-color="#0ff" stop-opacity=".6"/><stop offset=".76" stop-color="#0ff" stop-opacity=".43"/><stop offset=".88" stop-color="#0ff" stop-opacity=".22"/><stop offset="1" stop-color="#0ff" stop-opacity="0"/></radialGradient><linearGradient id="linear-gradient-5" x1="812.31" y1="235.2" x2="872.49" y2="295.39" gradientTransform="matrix(-1, 0, 0, 1, 1031.83, 0)" xlink:href="#linear-gradient"/><linearGradient id="linear-gradient-6" x1="159.19" y1="268.52" x2="169.04" y2="212.65" xlink:href="#linear-gradient"/><linearGradient id="linear-gradient-7" x1="146.04" y1="269.29" x2="153.9" y2="224.67" xlink:href="#linear-gradient"/><radialGradient id="radial-gradient-2" cx="153.48" cy="193.13" r="13.78" xlink:href="#radial-gradient"/><linearGradient id="linear-gradient-8" x1="598.51" y1="337.94" x2="658.69" y2="398.12" gradientTransform="matrix(-1, 0, 0, 1, 1031.83, 0)" xlink:href="#linear-gradient"/><linearGradient id="linear-gradient-9" x1="372.35" y1="371.23" x2="382.18" y2="315.46" xlink:href="#linear-gradient"/><linearGradient id="linear-gradient-10" x1="360.94" y1="372.06" x2="368.79" y2="327.52" xlink:href="#linear-gradient"/><radialGradient id="radial-gradient-3" cx="1220.72" cy="295.86" r="13.78" gradientTransform="matrix(-0.9, 0, 0, 1, 1463.33, 0)" xlink:href="#radial-gradient"/><linearGradient id="linear-gradient-11" x1="62.26" y1="286.58" x2="122.44" y2="346.77" gradientTransform="matrix(-1, 0, 0, 1, 1031.83, 0)" xlink:href="#linear-gradient"/><linearGradient id="linear-gradient-12" x1="909.24" y1="319.9" x2="919.09" y2="264.03" xlink:href="#linear-gradient"/><linearGradient id="linear-gradient-13" x1="896.09" y1="320.67" x2="903.95" y2="276.06" xlink:href="#linear-gradient"/><radialGradient id="radial-gradient-4" cx="903.59" cy="244.76" r="13.93" xlink:href="#radial-gradient"/><linearGradient id="linear-gradient-14" x1="500.4" y1="195.84" x2="549.1" y2="244.54" gradientTransform="matrix(-1, 0, 0, 1, 1031.83, 0)" xlink:href="#linear-gradient"/><linearGradient id="linear-gradient-15" x1="479.25" y1="227.07" x2="479.25" y2="168.17" xlink:href="#linear-gradient"/><linearGradient id="linear-gradient-16" x1="482.33" y1="170.32" x2="482.33" y2="138.62" xlink:href="#linear-gradient"/><linearGradient id="linear-gradient-17" x1="471.45" y1="226.78" x2="471.45" y2="180.95" xlink:href="#linear-gradient"/><linearGradient id="linear-gradient-18" x1="376.05" y1="317.72" x2="376.05" y2="303.77" xlink:href="#linear-gradient"/><linearGradient id="linear-gradient-19" x1="356.55" y1="214.95" x2="356.55" y2="201" gradientTransform="matrix(-1, 0, 0, 1, 501.47, 0)" xlink:href="#linear-gradient"/><linearGradient id="linear-gradient-20" x1="368.83" y1="274.16" x2="368.83" y2="254.78" xlink:href="#linear-gradient"/><linearGradient id="linear-gradient-21" x1="152.49" y1="171.43" x2="152.49" y2="150.18" xlink:href="#linear-gradient"/><linearGradient id="linear-gradient-22" x1="-393.5" y1="265.63" x2="-393.5" y2="252.44" gradientTransform="matrix(-1, 0, 0, 1, 501.47, 0)" xlink:href="#linear-gradient"/><linearGradient id="linear-gradient-23" x1="906.17" y1="222.73" x2="906.17" y2="198.37" xlink:href="#linear-gradient"/><linearGradient id="linear-gradient-24" x1="710.17" y1="191.38" x2="710.17" y2="176.94" xlink:href="#linear-gradient"/><linearGradient id="linear-gradient-25" x1="708.56" y1="151.22" x2="708.56" y2="139.12" xlink:href="#linear-gradient"/></defs><g class="cls-1"><g id="Layer_1" data-name="Layer 1"><path d="M699.21,135.08c-.43,2.78.2,5.6.38,8.4a26.74,26.74,0,0,1-1.31,10.2,107.85,107.85,0,0,0,22.78,1,15.24,15.24,0,0,1-2.82-8.27c-.24-2.95,0-5.92-.12-8.87a2.77,2.77,0,0,0-.36-1.51,2.9,2.9,0,0,0-1.21-.85c-3.79-1.81-7.54-3.88-11.41-5.5C702,128.35,699.64,132.31,699.21,135.08Z"/><path class="cls-2" d="M472.12,107.33a14,14,0,0,0-2,4.9,23.85,23.85,0,0,0-1,7.62,9.63,9.63,0,0,0,3.17,6.82,6.08,6.08,0,0,0,7.16.57,9.38,9.38,0,0,0,2.14-2.34,15.69,15.69,0,0,0,3-5.93c.46-2.4-.11-4.85-.67-7.22a10.3,10.3,0,0,0-1.81-4.39C479.42,104.29,474.59,104,472.12,107.33Z"/><path class="cls-3" d="M484.65,119.37a7.94,7.94,0,0,1-.66,2,12.63,12.63,0,0,1-1,1.59l-1,1.44a16.47,16.47,0,0,1-2.54,3A14.91,14.91,0,0,1,479,124a5.56,5.56,0,0,1,.3-2,13.07,13.07,0,0,1,1.8-3.26C481.85,118.22,483.42,119.49,484.65,119.37Z"/><path class="cls-4" d="M483.1,119.72a17.5,17.5,0,0,1-3.52,4.29,9.35,9.35,0,0,1-3.46,2.26,5.53,5.53,0,0,1-5-1,2,2,0,0,1-.86-2.1,2.29,2.29,0,0,1,.67-.78,50.46,50.46,0,0,1,8-5.62,8.64,8.64,0,0,0,1.46-.94,8.19,8.19,0,0,0,2.09-3.9,3.59,3.59,0,0,1,1.81.67c.87.77.09,2.11,0,3.08A10,10,0,0,1,483.1,119.72Z"/><path class="cls-5" d="M752.14,124.41A14.49,14.49,0,0,0,730,143l-2,5.55,5.57-2a14.49,14.49,0,0,0,18.49-22.16Z"/><path class="cls-6" d="M745.05,141.51l-1-3.61h-4.27l-1,3.61h-2.2l3.93-13.45h2.95l3.93,13.45ZM742,130.24h-.15l-1.66,5.89h3.47Z"/><path class="cls-7" d="M685,134.92a9.62,9.62,0,0,0-14.68,12.34l-1.31,3.7,3.71-1.31A9.63,9.63,0,0,0,685,134.92Z"/><g class="cls-8"><path class="cls-6" d="M676.92,146.28H675.5v-8.94h3.34a2.54,2.54,0,0,1,1.95.72,2.75,2.75,0,0,1,.67,2,2.71,2.71,0,0,1-.5,1.69,2.13,2.13,0,0,1-1.43.81l2.06,3.75H680l-1.89-3.62h-1.19Zm1.71-4.76c.89,0,1.33-.41,1.33-1.22v-.56c0-.81-.44-1.22-1.33-1.22h-1.71v3Z"/></g><polygon class="cls-9" points="696.2 246.44 759.9 226.45 770.84 228.75 799.89 234.85 731.19 251.32 717.43 246.62 708.18 249.71 696.2 246.44"/><path class="cls-10" d="M720.72,244.86s16.07-61.29-9.18-71.58-7.11,71.58-7.11,71.58l3.86,1.23,3.1-45.17s6.72,32,4.84,45.17Z"/><path class="cls-11" d="M694.53,246.6A4.05,4.05,0,0,0,693.3,248c-.56,1.3.49,2.85,1.81,3.34a7.88,7.88,0,0,0,4.2,0l7.84-1.47c1.81-.33,4-1.05,4.28-2.86a4.06,4.06,0,0,0-.49-2.24,3.41,3.41,0,0,0-1.75-2,1.48,1.48,0,0,0-1.9,1.19C702.56,240.67,698.57,243.31,694.53,246.6Z"/><path class="cls-11" d="M715.08,249.71a4.75,4.75,0,0,0,1.83.46l2.9.32c.86,1,2.29,1.18,3.59,1.32l5.85.64a3,3,0,0,0,2.22-.35,2.4,2.4,0,0,0,.58-2.26c-.47-3.09-3.16-5.45-6.11-6.49a7.84,7.84,0,0,0-4.79-.08c-.79.17-1.21,1.27-2,1.34s-1.15-1-1.74-.91C715.14,244,711.3,247.58,715.08,249.71Z"/><path class="cls-12" d="M723.63,188.8h0l-7.19,1.38a.61.61,0,0,0-.3.13c-.26.25-.1.77.08,1.12,1.75,3.55,2.11,7.88,2.37,12.05.35,5.67.61,11.35.86,17,.06,1.17.11,2.34.16,3.51.3,6.68.59,13.53-1,19.91a1.55,1.55,0,0,0,0,1.06,1,1,0,0,0,.35.35l1.82-.5S729.76,210.38,723.63,188.8Z"/><path class="cls-13" d="M708.19,206.92a37.39,37.39,0,0,0-3.47,10.78,46.94,46.94,0,0,0,.49,10.58q.54,4.71.84,9.45c.1,1.62.18,3.23.25,4.85a10.66,10.66,0,0,0,.31,3l1.68.53,3.1-45.17V201a1.41,1.41,0,0,0,0-.2A37.13,37.13,0,0,0,708.19,206.92Z"/><path class="cls-14" d="M725.79,247.32a4,4,0,0,1,3.74-2"/><path class="cls-14" d="M700,247.46a4.59,4.59,0,0,0-4.15-2.47"/><path class="cls-14" d="M723,246.43a6,6,0,0,1,4.45-2.45"/><path class="cls-14" d="M702.6,246.63a3.46,3.46,0,0,0-1.8-2.31,9,9,0,0,0-2.88-.88"/><path class="cls-14" d="M727.42,248.4a3.32,3.32,0,0,1,3.51-1.39"/><path class="cls-14" d="M704.39,245.42a3.07,3.07,0,0,0-1.78-2.27,7.07,7.07,0,0,0-2.92-.6"/><path class="cls-5" d="M695.89,159.88a36.26,36.26,0,0,0-.73,8.45,134.41,134.41,0,0,0,1.64,20.72,2.44,2.44,0,0,0,.4,1.16,2.51,2.51,0,0,0,1.44.72c6.89,1.65,14.14,2.72,21,1,1.71-.42,3.52-1.11,4.47-2.6s.83-3.27.71-5l-1.26-17.79c-.39-5.48-.88-11.26-4.06-15.74-2.71-3.81-8.66-6.52-13.57-4.72a13.73,13.73,0,0,0-6.07,4.83A29.28,29.28,0,0,0,695.89,159.88Z"/><circle class="cls-15" cx="710.18" cy="170.61" r="13.78"/><path class="cls-16" d="M413.34,249.71a14.48,14.48,0,0,0-22.09,18.56l-2,5.56,5.57-2a14.48,14.48,0,0,0,18.48-22.15Z"/><path class="cls-14" d="M386,371.81a3.3,3.3,0,0,1,3.51-1.39"/><path class="cls-6" d="M399,266.8V253.36h5a3.84,3.84,0,0,1,2.93,1.07,4.8,4.8,0,0,1,0,5.92,3.81,3.81,0,0,1-2.93,1.08h-2.87v5.37Zm2.16-7.14h2.54c1.34,0,2-.62,2-1.86V257c0-1.23-.66-1.84-2-1.84h-2.54Z"/><path class="cls-17" d="M199.68,149a14.49,14.49,0,0,0-22.1,18.57l-2,5.56,5.57-2A14.49,14.49,0,0,0,199.68,149Z"/><path class="cls-6" d="M189.36,166.29a6.41,6.41,0,0,1-3-.61,5.54,5.54,0,0,1-2-1.62l1.38-1.33a5.21,5.21,0,0,0,1.64,1.36,4.32,4.32,0,0,0,2,.43,2.91,2.91,0,0,0,1.95-.58,2.06,2.06,0,0,0,.69-1.67,1.76,1.76,0,0,0-.51-1.35,3.35,3.35,0,0,0-1.71-.68L188.4,160a4.83,4.83,0,0,1-1.62-.51,3.49,3.49,0,0,1-1.06-.84,3.17,3.17,0,0,1-.59-1.1,4.45,4.45,0,0,1-.18-1.28,3.49,3.49,0,0,1,1.23-2.89,5.26,5.26,0,0,1,3.39-1,6.59,6.59,0,0,1,2.73.5,4.68,4.68,0,0,1,1.82,1.42l-1.35,1.35a4.48,4.48,0,0,0-1.32-1.09,4,4,0,0,0-1.88-.41,2.82,2.82,0,0,0-1.82.51,1.84,1.84,0,0,0-.63,1.51,1.75,1.75,0,0,0,.5,1.31,3.32,3.32,0,0,0,1.74.68l1.42.25a4.31,4.31,0,0,1,2.64,1.32,3.61,3.61,0,0,1,.83,2.42,4.24,4.24,0,0,1-.32,1.69,3.41,3.41,0,0,1-.94,1.31,4.29,4.29,0,0,1-1.54.83A6.72,6.72,0,0,1,189.36,166.29Z"/><polygon class="cls-18" points="135.68 271.73 203.2 250.46 214.14 252.76 243.19 258.86 174.49 275.33 160.73 270.62 151.48 273.72 135.68 271.73"/><path class="cls-19" d="M166.29,268.87s20.23-61.29-11.55-71.58-9,71.58-9,71.58l4.85,1.23,3.91-45.17s8.45,32,6.08,45.17Z"/><path class="cls-20" d="M136.37,270.61a3.84,3.84,0,0,0-1.22,1.38c-.57,1.3.48,2.84,1.81,3.34a8,8,0,0,0,4.19,0l7.84-1.47c1.81-.34,4-1,4.28-2.86a3.94,3.94,0,0,0-.49-2.24,3.38,3.38,0,0,0-1.75-2,1.47,1.47,0,0,0-1.9,1.18C144.4,264.68,140.41,267.31,136.37,270.61Z"/><path class="cls-20" d="M160,273.72a4.74,4.74,0,0,0,1.83.45l2.9.32c.86,1,2.29,1.19,3.59,1.33l5.85.64a3,3,0,0,0,2.22-.35,2.4,2.4,0,0,0,.58-2.26c-.47-3.09-3.16-5.46-6.11-6.49a7.92,7.92,0,0,0-4.79-.09c-.79.18-1.21,1.27-2,1.34s-1.15-1-1.74-.9C160,268,156.19,271.59,160,273.72Z"/><path class="cls-21" d="M170,212.81h0l-9,1.39a.72.72,0,0,0-.38.13c-.33.25-.12.77.1,1.12,2.2,3.55,2.65,7.88,3,12,.45,5.68.77,11.36,1.09,17,.07,1.17.13,2.34.2,3.51.37,6.68.73,13.54-1.28,19.92a1.27,1.27,0,0,0,0,1.06,1.09,1.09,0,0,0,.44.35l2.29-.5S177.67,234.38,170,212.81Z"/><path class="cls-22" d="M150.52,230.92c-1.9,3.41-3.8,6.93-4.36,10.79-.52,3.51.11,7.07.61,10.58q.67,4.71,1,9.45c.13,1.61.24,3.23.31,4.85a8.28,8.28,0,0,0,.4,3l2.11.54,3.91-45.17V225a1.34,1.34,0,0,0,0-.2A34.33,34.33,0,0,0,150.52,230.92Z"/><path class="cls-17" d="M170.48,214.42l.83-3.15a29.06,29.06,0,0,1,2.22-5.11c1.86-4,2.22-8.6,2.23-13a11,11,0,0,0-.93-5.11,44.51,44.51,0,0,0-12.69-17.64,14.29,14.29,0,0,0-7.44-4.78c-8.31-2-12.08,5.91-13.39,12.42a227.54,227.54,0,0,0-4.25,36c9.68,3.38,20.6,4.89,29.42-.38A4.61,4.61,0,0,1,170.48,214.42Z"/><path class="cls-23" d="M166.48,212.24A44.66,44.66,0,0,0,167.53,187c-1.14-4.12-.7-2.91-3.38-6.69"/><path class="cls-23" d="M154.66,223.26a16.33,16.33,0,0,1-.39-4.41"/><path class="cls-14" d="M170.69,271.32a4,4,0,0,1,3.73-2"/><path class="cls-14" d="M141.81,271.47a4.6,4.6,0,0,0-4.15-2.48"/><path class="cls-14" d="M167.85,270.43A6,6,0,0,1,172.3,268"/><path class="cls-14" d="M144.44,270.63a3.44,3.44,0,0,0-1.8-2.3,8.69,8.69,0,0,0-2.88-.88"/><path class="cls-14" d="M172.31,272.41a3.3,3.3,0,0,1,3.51-1.39"/><path class="cls-14" d="M146.24,269.42a3.15,3.15,0,0,0-1.78-2.27,7.31,7.31,0,0,0-2.93-.59"/><circle class="cls-24" cx="153.48" cy="193.13" r="13.78"/><polygon class="cls-25" points="349.48 374.46 416.99 353.19 427.94 355.49 456.98 361.6 388.29 378.06 374.52 373.36 365.27 376.45 349.48 374.46"/><path class="cls-26" d="M379.35,371.6S397.48,310.31,369,300s-8,71.58-8,71.58l4.36,1.23,3.49-45.17s7.58,32,5.46,45.17Z"/><path class="cls-27" d="M350.86,373.35a3.84,3.84,0,0,0-1.22,1.38c-.57,1.3.48,2.84,1.81,3.33a7.84,7.84,0,0,0,4.19,0l7.84-1.46c1.81-.34,4-1.05,4.28-2.87a4,4,0,0,0-.49-2.24,3.41,3.41,0,0,0-1.75-2,1.48,1.48,0,0,0-1.9,1.19C358.89,367.41,354.9,370.05,350.86,373.35Z"/><path class="cls-27" d="M373.77,376.45a4.7,4.7,0,0,0,1.82.46l2.9.32c.87,1,2.29,1.18,3.59,1.33l5.85.63a3,3,0,0,0,2.23-.35,2.45,2.45,0,0,0,.58-2.26c-.47-3.08-3.17-5.45-6.11-6.49a8,8,0,0,0-4.79-.08c-.79.17-1.21,1.27-2,1.34s-1.14-1-1.74-.91C373.83,370.77,370,374.32,373.77,376.45Z"/><path class="cls-28" d="M382.63,315.54h0l-8.1,1.39a.66.66,0,0,0-.34.12c-.3.25-.11.77.09,1.13,2,3.55,2.37,7.87,2.67,12,.4,5.67.69,11.36,1,17,.06,1.17.12,2.34.17,3.51.34,6.68.66,13.53-1.14,19.92a1.39,1.39,0,0,0,0,1.06,1.1,1.1,0,0,0,.4.34l2.05-.5S389.55,337.12,382.63,315.54Z"/><path class="cls-29" d="M365.21,333.66c-1.7,3.41-3.4,6.92-3.91,10.78-.46,3.51.1,7.07.55,10.58q.6,4.71.95,9.45c.11,1.62.21,3.23.28,4.85a9.35,9.35,0,0,0,.35,3l1.9.53,3.49-45.17,0,.07a1.48,1.48,0,0,1,0-.21A35.77,35.77,0,0,0,365.21,333.66Z"/><path class="cls-16" d="M354,317.15l-.74-3.14a30.46,30.46,0,0,0-2-5.12c-1.66-4-2-8.6-2-13.05a16.38,16.38,0,0,1,.15-2.62,15,15,0,0,1,.68-2.49,44.85,44.85,0,0,1,11.38-17.64,12.77,12.77,0,0,1,6.67-4.77c7.45-2,10.83,5.91,12,12.42a252.59,252.59,0,0,1,3.81,36c-8.67,3.37-18.46,4.88-26.37-.39A3.78,3.78,0,0,0,354,317.15Z"/><path class="cls-23" d="M357.54,315a49.54,49.54,0,0,1-.94-25.25c1-4.12.62-2.92,3-6.69"/><path class="cls-23" d="M368.92,326a18.71,18.71,0,0,1-.34-4.42"/><path class="cls-14" d="M384.48,374.06a4.05,4.05,0,0,1,3.74-2"/><path class="cls-14" d="M356.3,374.2a4.59,4.59,0,0,0-4.15-2.47"/><path class="cls-14" d="M381.65,373.17a6,6,0,0,1,4.44-2.45"/><path class="cls-14" d="M358.93,373.37a3.48,3.48,0,0,0-1.8-2.31,9.18,9.18,0,0,0-2.88-.88"/><path class="cls-14" d="M386.11,375.14a3.3,3.3,0,0,1,3.51-1.38"/><path class="cls-14" d="M360.73,372.16a3.12,3.12,0,0,0-1.78-2.27,7.14,7.14,0,0,0-2.93-.59"/><ellipse class="cls-30" cx="369.19" cy="295.86" rx="12.35" ry="13.78"/><path class="cls-31" d="M923.88,215.55c-.08-.79-1-1.19-1.71-1.43l-11.61-3.82a1.59,1.59,0,0,1-1.34-2v-3.86c0-.29,0-.64.3-.77a.83.83,0,0,1,.56,0l19.38,5.05a8.87,8.87,0,0,1,3.28,1.35c1.39,1.1,3.83,2.74,4,4.5.14,1.31-.81,3.14-1.06,4.44-.14.78-1.32,1.25-1.78,1.91a7.41,7.41,0,0,1-2.85,2.1,84.2,84.2,0,0,0-12.62,8.16,2.79,2.79,0,0,1-1.52.74,2.24,2.24,0,0,1-1.14-.35c-2.08-1.18-3.32-3.4-4.45-5.51-1-1.88-2-3.75-3-5.64-.63-1.21-.93-1.29.31-1.63a21.41,21.41,0,0,1,3.22-.25A46,46,0,0,0,923.88,215.55Z"/><polygon class="cls-32" points="885.73 323.11 953.25 301.84 964.19 304.14 993.24 310.24 924.54 326.71 910.78 322 901.53 325.1 885.73 323.11"/><path class="cls-33" d="M916.34,320.25s20.23-61.29-11.55-71.58-8.95,71.58-8.95,71.58l4.85,1.23,3.91-45.17s8.45,32,6.08,45.17Z"/><path class="cls-34" d="M886.42,322a3.92,3.92,0,0,0-1.22,1.38c-.57,1.3.48,2.85,1.8,3.34a7.88,7.88,0,0,0,4.2,0l7.84-1.47c1.81-.33,4-1.05,4.28-2.86a4,4,0,0,0-.49-2.24,3.41,3.41,0,0,0-1.75-2,1.47,1.47,0,0,0-1.9,1.19C894.45,316.06,890.46,318.7,886.42,322Z"/><path class="cls-34" d="M910,325.1a4.75,4.75,0,0,0,1.83.46l2.9.31c.86,1,2.29,1.19,3.59,1.33l5.85.64a3,3,0,0,0,2.22-.35,2.4,2.4,0,0,0,.58-2.26c-.47-3.09-3.16-5.45-6.11-6.49a7.92,7.92,0,0,0-4.79-.09c-.79.18-1.21,1.28-2,1.35s-1.14-1-1.73-.91C910.08,319.42,906.24,323,910,325.1Z"/><path class="cls-35" d="M920,264.19h0l-9,1.38a.78.78,0,0,0-.38.13c-.33.25-.12.77.1,1.12,2.2,3.55,2.65,7.88,3,12.05.45,5.67.77,11.35,1.09,17,.06,1.17.13,2.34.2,3.51.37,6.68.73,13.53-1.28,19.91a1.27,1.27,0,0,0,0,1.06,1.09,1.09,0,0,0,.44.35l2.29-.5S927.72,285.77,920,264.19Z"/><path class="cls-36" d="M900.57,282.31c-1.9,3.4-3.8,6.92-4.36,10.78-.52,3.51.11,7.07.61,10.58q.67,4.71,1,9.45c.13,1.62.23,3.23.31,4.85a8.51,8.51,0,0,0,.39,3l2.12.54,3.91-45.17v.06a1.41,1.41,0,0,0,0-.2A34.41,34.41,0,0,0,900.57,282.31Z"/><path class="cls-23" d="M904.7,274.64a16.73,16.73,0,0,1-.38-4.41"/><path class="cls-14" d="M920.73,322.71a4.06,4.06,0,0,1,3.74-2"/><path class="cls-14" d="M891.86,322.85a4.59,4.59,0,0,0-4.15-2.47"/><path class="cls-14" d="M917.9,321.82a6,6,0,0,1,4.45-2.45"/><path class="cls-14" d="M894.49,322a3.44,3.44,0,0,0-1.8-2.31,8.93,8.93,0,0,0-2.88-.88"/><path class="cls-14" d="M922.36,323.79a3.32,3.32,0,0,1,3.51-1.39"/><path class="cls-14" d="M896.29,320.81a3.12,3.12,0,0,0-1.78-2.27,7.15,7.15,0,0,0-2.93-.6"/><path class="cls-31" d="M920.69,265.2c0-.3,0-.62,0-.83,0-.49.09-1,.13-1.47.15-2,.22-4,.24-6.06a181.32,181.32,0,0,0-1-19.35,22.84,22.84,0,0,0-.86-3.22c-.25-1.06-.88-2.52-1.24-3.54-.64-1.84-4.25-6.32-4.94-8.2-.29-.26-.58-.54-.88-.79a14.21,14.21,0,0,0-7.44-4.77c-8.31-2-12.08,5.9-13.39,12.42a226.11,226.11,0,0,0-4.25,36s26.16,2.13,33.36.41l.09-.14Z"/><path class="cls-37" d="M875,196.84a9.63,9.63,0,0,0-14.69,12.35l-1.3,3.69,3.7-1.31A9.63,9.63,0,0,0,875,196.84Z"/><g class="cls-8"><path class="cls-6" d="M868.15,208.36a4.28,4.28,0,0,1-2-.4,3.75,3.75,0,0,1-1.31-1.08l.93-.89a3.59,3.59,0,0,0,1.08.91,2.93,2.93,0,0,0,1.31.29,1.94,1.94,0,0,0,1.3-.39,1.4,1.4,0,0,0,.46-1.11,1.19,1.19,0,0,0-.34-.9,2.18,2.18,0,0,0-1.14-.45l-1-.16a3.35,3.35,0,0,1-1.08-.34,2.19,2.19,0,0,1-.7-.56,2.06,2.06,0,0,1-.39-.73,3,3,0,0,1-.12-.85,2.3,2.3,0,0,1,.82-1.92,3.47,3.47,0,0,1,2.25-.66,4.47,4.47,0,0,1,1.81.33,3.09,3.09,0,0,1,1.21,1l-.89.89a3.06,3.06,0,0,0-.88-.72,2.63,2.63,0,0,0-1.25-.27,1.86,1.86,0,0,0-1.21.34,1.22,1.22,0,0,0-.42,1,1.15,1.15,0,0,0,.33.87,2.26,2.26,0,0,0,1.16.46l1,.16a2.89,2.89,0,0,1,1.75.88,2.39,2.39,0,0,1,.55,1.6,3,3,0,0,1-.21,1.13,2.27,2.27,0,0,1-.63.87,2.85,2.85,0,0,1-1,.55A4.28,4.28,0,0,1,868.15,208.36Z"/></g><path class="cls-38" d="M851.68,201.19A9.63,9.63,0,0,0,837,213.53l-1.3,3.69,3.7-1.3a9.63,9.63,0,0,0,12.29-14.73Z"/><g class="cls-8"><path class="cls-6" d="M847,212.55l-.68-2.39h-2.84l-.68,2.39h-1.46l2.61-8.94h2l2.62,8.94Zm-2.05-7.49h-.1l-1.1,3.92H846Z"/></g><path class="cls-39" d="M866.34,220.38a9.63,9.63,0,0,0-14.69,12.35l-1.3,3.69,3.7-1.31a9.63,9.63,0,0,0,12.29-14.73Z"/><g class="cls-8"><path class="cls-6" d="M856.79,231.75v-8.94h3.34a2.58,2.58,0,0,1,2,.71,3.23,3.23,0,0,1,0,3.94,2.55,2.55,0,0,1-2,.71h-1.9v3.58Zm1.44-4.75h1.69c.88,0,1.33-.42,1.33-1.24v-.55c0-.82-.45-1.22-1.33-1.22h-1.69Z"/></g><path class="cls-40" d="M917.31,244.51c1.07,10.49-5.33,16-13.78,13.77-7.35-2-13.78-6.16-13.78-13.77a13.78,13.78,0,0,1,13.78-13.78C911.14,230.73,916.53,236.94,917.31,244.51Z"/><path class="cls-41" d="M924.22,215.08a8.49,8.49,0,0,1,3.89-.6,7.87,7.87,0,0,0-3.55.65l3.89.65"/><path class="cls-42" d="M526.51,106.33a14.48,14.48,0,0,0-22.09,18.57l-2,5.56,5.57-2a14.49,14.49,0,0,0,18.48-22.16Z"/><path class="cls-6" d="M514.29,123.43h-2.14V110h5a3.85,3.85,0,0,1,2.94,1.08,4.17,4.17,0,0,1,1,3,4.12,4.12,0,0,1-.75,2.54,3.28,3.28,0,0,1-2.16,1.23l3.1,5.64h-2.39L516.08,118h-1.79Zm2.58-7.17c1.34,0,2-.61,2-1.83v-.84c0-1.22-.66-1.83-2-1.83h-2.58v4.5Z"/><path class="cls-39" d="M456,83.58A9.63,9.63,0,0,0,441.3,95.92L440,99.61l3.7-1.3A9.63,9.63,0,0,0,456,83.58Z"/><g class="cls-8"><path class="cls-6" d="M446.44,94.94V86h3.34a2.51,2.51,0,0,1,2,.72,3.18,3.18,0,0,1,0,3.93,2.51,2.51,0,0,1-2,.72h-1.91v3.57Zm1.43-4.75h1.69c.89,0,1.34-.41,1.34-1.23V88.4c0-.81-.45-1.22-1.34-1.22h-1.69Z"/></g><path class="cls-39" d="M432.66,87.92A9.63,9.63,0,0,0,418,100.26l-1.3,3.7,3.7-1.31a9.63,9.63,0,0,0,12.29-14.73Z"/><g class="cls-8"><path class="cls-6" d="M423.11,99.29V90.35h3.34a2.55,2.55,0,0,1,2,.71,3.23,3.23,0,0,1,0,3.94,2.58,2.58,0,0,1-2,.71h-1.91v3.58Zm1.43-4.76h1.69c.89,0,1.34-.41,1.34-1.23v-.55c0-.82-.45-1.23-1.34-1.23h-1.69Z"/></g><path class="cls-37" d="M447.32,107.11a9.63,9.63,0,0,0-14.69,12.35l-1.3,3.69,3.7-1.31a9.63,9.63,0,0,0,12.29-14.73Z"/><g class="cls-8"><path class="cls-6" d="M440.46,118.63a4.28,4.28,0,0,1-2-.4,3.84,3.84,0,0,1-1.31-1.08l.93-.89a3.37,3.37,0,0,0,1.09.91,2.86,2.86,0,0,0,1.3.29,1.94,1.94,0,0,0,1.3-.39,1.4,1.4,0,0,0,.46-1.11,1.19,1.19,0,0,0-.34-.9,2.18,2.18,0,0,0-1.14-.45l-1-.16a3.35,3.35,0,0,1-1.08-.34,2.19,2.19,0,0,1-.7-.56,2.06,2.06,0,0,1-.39-.73,3,3,0,0,1-.12-.85,2.31,2.31,0,0,1,.82-1.92,3.47,3.47,0,0,1,2.25-.66,4.47,4.47,0,0,1,1.81.33,3,3,0,0,1,1.21,1l-.89.89a3.06,3.06,0,0,0-.88-.72,2.63,2.63,0,0,0-1.25-.27,1.86,1.86,0,0,0-1.21.34,1.22,1.22,0,0,0-.42,1,1.15,1.15,0,0,0,.33.87,2.26,2.26,0,0,0,1.16.46l1,.16a2.89,2.89,0,0,1,1.75.88,2.39,2.39,0,0,1,.55,1.6,3,3,0,0,1-.21,1.13,2.27,2.27,0,0,1-.63.87,3,3,0,0,1-1,.56A4.58,4.58,0,0,1,440.46,118.63Z"/></g><polygon class="cls-43" points="513.45 206.34 520.8 208.15 549.85 214.25 481.16 230.72 464.32 226.13 513.45 206.34"/><path d="M465.1,229a4.59,4.59,0,0,0,2.77,1.05,10.29,10.29,0,0,0,3.75.06c1.7-.41,3.07-1.66,4.73-2.2a18.68,18.68,0,0,0,3-.84,2.09,2.09,0,0,0,1.23-2.51,2.41,2.41,0,0,0-1-1,13.38,13.38,0,0,0-6-1.85,10.13,10.13,0,0,0-3.8.31C467.22,222.8,461.71,225.48,465.1,229Z"/><path class="cls-44" d="M489.49,228a2.09,2.09,0,0,0,1.22-2.51,2.53,2.53,0,0,0-1-1,13.34,13.34,0,0,0-6-1.85,10.19,10.19,0,0,0-3.81.31c-2.5.77-8,3.45-4.62,7A4.59,4.59,0,0,0,478,231a10.07,10.07,0,0,0,3.75.06Z"/><path class="cls-45" d="M485.29,169.24a1.3,1.3,0,0,0-.41-.62,1.47,1.47,0,0,0-.84-.19L467.67,168c-2.18-.06-6.46-.78-7.45,1.81-1.18,3.09,1.17,7.28,2,10.21,1.65,6.11,3.15,37.54,3.12,43.85a2.46,2.46,0,0,0,.22,1.23A2.55,2.55,0,0,0,467,226c.68.22,1.3.4,1.9.56a10.27,10.27,0,0,0,4-.57,1.77,1.77,0,0,1,.78-.17,2,2,0,0,1,.86.38A6.57,6.57,0,0,0,478,227c1.27-.24,2.67-.59,4.33-1,.35-9,2.8-42.43,3.38-51.42A12.32,12.32,0,0,0,485.29,169.24Z"/><path class="cls-46" d="M485.71,174.55a12.32,12.32,0,0,0-.42-5.31,1.3,1.3,0,0,0-.41-.62,1.47,1.47,0,0,0-.84-.19l-8.9-.26a5.3,5.3,0,0,0-2.44,2.2,8.63,8.63,0,0,1,7.16,4.85c1.37,2.88,1.37,6.18,1.36,9.36,0,5.87-1.86,36.62-1.9,42.49,1.08-.17,2-.83,3-1.1C482.68,217,485.13,183.54,485.71,174.55Z"/><path class="cls-47" d="M491.07,135.92a.26.26,0,0,1,.19.06c.09.09,0,.24,0,.36a3,3,0,0,1-1.71,1.68,5.76,5.76,0,0,1-.93.11,8,8,0,0,0-1.18.26,20,20,0,0,1-2.28.58C484.21,135.78,489,135.72,491.07,135.92Z"/><path class="cls-2" d="M499.12,142.13a4.21,4.21,0,0,0-1.09-4.22,1.08,1.08,0,0,0-.83-.38c-.51.08-.69.72-.75,1.23a66.74,66.74,0,0,0-.36,8.23C497.21,145.34,498.69,143.48,499.12,142.13Z"/><path d="M487.84,140.56a1.91,1.91,0,0,0-.22,1.83,1.81,1.81,0,0,0,.85.61,30.84,30.84,0,0,0,4.52,1.62.8.8,0,0,0,.59,0,1,1,0,0,0,.27-.26l4.44-6.08c.56-.76,1.14-1.82.59-2.6a3.24,3.24,0,0,0-1.25-.8c-2.09-1.07-3.37-4.39-5.54-2C490.27,134.86,489.05,138.15,487.84,140.56Z"/><path class="cls-42" d="M487.14,163c-.55-2.87-1.12-5.73-1.69-8.6,1.22-7.24,1.46-12.61-.32-19.74a12.45,12.45,0,0,0-1.42-2.91,10.39,10.39,0,0,0-2-2.48c-1.74-1.18-6.32-4.58-8.5-3.46-.08,0-.53-.2-.6-.16a8,8,0,0,0-7.6,3.76c-3.44,8.12-3.72,14.94-4.75,23.7q-.66,5.69-1.33,11.37c-.14,1.25-.23,2.67.62,3.59a4.18,4.18,0,0,0,2.37,1,64.78,64.78,0,0,0,23.19.41C488.77,168.93,487.72,166.06,487.14,163Z"/><path class="cls-3" d="M488.57,141a19.79,19.79,0,0,1,5,2.35q1.88-3.44,3.67-6.9c-1.41-1.28-3.88-3.37-5.24-1.9C491.47,135,489.27,141.18,488.57,141Z"/><path class="cls-47" d="M489.86,139.22c.3-.06.62,0,.91-.12a.74.74,0,0,0,.6-.61c0-.42-.46-.66-.87-.73a22.86,22.86,0,0,0-2.86.07,5.79,5.79,0,0,0-1,0,1.19,1.19,0,0,0-.86.47c-.5.79.29,2.93,1.32,2.77S488.73,139.43,489.86,139.22Z"/><path d="M486,112.8a.79.79,0,0,1-.13.48.78.78,0,0,1-.67.16,18.11,18.11,0,0,1-4.48-1c.34-1.74-.1-7.06,2.69-6.22C486,107,486.12,110.79,486,112.8Z"/><path class="cls-48" d="M487.14,163c-.55-2.87-1.12-5.73-1.69-8.6a53.74,53.74,0,0,0,.46-14.44,18.47,18.47,0,0,0-8.12-1.31,1,1,0,0,0-.67.21c-.29.28-.19.75-.08,1.13,1.17,4,1,8.21.87,12.35q-.35,9-.67,18a64.26,64.26,0,0,0,7.84-.79C488.77,168.93,487.72,166.06,487.14,163Z"/><path class="cls-2" d="M496.58,140.69a3.27,3.27,0,0,0-2.18-2.29c-.55-.13-1.33.16-1.24.72,0,.27.27.45.45.65a2.16,2.16,0,0,1,.55,1.25c.07.7-.2,1.45.08,2.1a1,1,0,0,0,.15.25l-.13.1c-.78.64-1.32,1.53-2.11,2.17A13.55,13.55,0,0,1,489.8,147a48,48,0,0,1-3.14-7.68,23.26,23.26,0,0,0-2.39-6.11c-3.16-4.78-9.35-3.25-8.93,2.83.19,2.8,1.85,5.25,3.45,7.55l3.64,5.24a31.08,31.08,0,0,0,4.78,5.8c1,.87,2.32,1.65,3.56,1.21.81-.28.94-.64,1.87-1.7a17,17,0,0,0,2.32-3.9,21.18,21.18,0,0,0,1.13-3.22,12.54,12.54,0,0,0,.56-3.24l.08.22A8.6,8.6,0,0,0,496.58,140.69Z"/><path class="cls-49" d="M486.78,107.55a3.62,3.62,0,0,0-.64-1.11,3.25,3.25,0,0,0-1.13-.68,19.28,19.28,0,0,0-3.13-1c-4.56-1-10.55-.47-13.43,3.71a14.64,14.64,0,0,0-2.3,8c0,2.83.79,6.12,3.39,7.24a8.29,8.29,0,0,0,3.17.49,11.89,11.89,0,0,0,2.67-.21,8.37,8.37,0,0,0,5-4,25.12,25.12,0,0,0,2.37-6.14l.12,0,.15,0,1.11.35a2.67,2.67,0,0,0,2.51-.07,2.33,2.33,0,0,0,.58-.92,6,6,0,0,0,.5-2.29A8.92,8.92,0,0,0,486.78,107.55Z"/><path class="cls-49" d="M466,108.68a4.33,4.33,0,0,0,.85,1.75c1,1.13,2.73,1.18,4.25,1.14a7.32,7.32,0,0,0,3-.51,5.87,5.87,0,0,0,2.67-3.5,5.34,5.34,0,0,0,.38-2.4C476.32,98.15,463.46,99.83,466,108.68Z"/><path class="cls-50" d="M468.73,110.77a5.51,5.51,0,0,0,7.26-1.88"/><path class="cls-51" d="M473.63,225.79c.23-9.5-.78-36.06-4.4-44.84,0,0,2.72,32.66,2.22,45.83Z"/><path class="cls-31" d="M936.25,185.05l-1.61,2v4.16h-2.16V177.79h2.16v6.44h.09l1.64-2.24,3.29-4.2h2.49l-4.43,5.66,4.6,7.79h-2.46Z"/><path class="cls-31" d="M936.76,171.74a12.84,12.84,0,1,1-12.85,12.84,12.85,12.85,0,0,1,12.85-12.84m0-1.61a14.45,14.45,0,1,0,14.44,14.45,14.45,14.45,0,0,0-14.44-14.45Z"/><path class="cls-52" d="M383.27,305.69c0-.18,0-.36,0-.54l-.12-1.37a60.74,60.74,0,0,0-14.9,1.65c1.11,1.67,3.45,1.82,5.33,2.5a10.83,10.83,0,0,1,5.22,4.38,24.28,24.28,0,0,1,2.33,5c.06.15.1.28.14.4.91-.3,1.8-.62,2.69-1C383.79,313.07,383.55,309.38,383.27,305.69Z"/><path class="cls-53" d="M137.7,202.92c0-.17,0-.35.05-.53l.12-1.38a61.23,61.23,0,0,1,14.9,1.65c-1.11,1.68-3.45,1.82-5.33,2.5a10.83,10.83,0,0,0-5.22,4.38,24.28,24.28,0,0,0-2.33,5c-.06.15-.1.28-.14.4-.91-.3-1.8-.62-2.69-1C137.18,210.3,137.42,206.61,137.7,202.92Z"/><path class="cls-54" d="M359.33,265.44c1.74,1.85,4.64,1.79,7.17,1.6l3.87-.29a5.74,5.74,0,0,1,2.07.08c.71.2,1.32.65,2,.84a3.74,3.74,0,0,0,4.07-2.25,8,8,0,0,0,.24-4.95,4.7,4.7,0,0,0-3.31-4.08,22.78,22.78,0,0,0-10.56-1.83,2.84,2.84,0,0,0-1.23.28,4.24,4.24,0,0,0-.83.75c-1.58,1.62-4.47,1.56-4.85,3.81C357.67,261.39,357.89,263.92,359.33,265.44Z"/><path class="cls-16" d="M371.69,268.2c1.19-1.14,1.8-.49,2.61.46s1.92,1.3,3.18,1.89a29.71,29.71,0,0,1,7.63,5.15,63.07,63.07,0,0,1,5.17,5.63c2,2.3,4,4.81,4.85,7.78a12.58,12.58,0,0,1,1,2.58,7.6,7.6,0,0,1,.48,3.87,6,6,0,0,1-1.24,2.31,20.55,20.55,0,0,1-8.22,6,47.39,47.39,0,0,1-9.62,2.61,10.82,10.82,0,0,0,0-7.36l6.38-4.58a1,1,0,0,0,.43-.47,1.15,1.15,0,0,0-.06-.75,7.79,7.79,0,0,0-3.25-4.22,4.43,4.43,0,0,1-1.24-.9,3.64,3.64,0,0,1-.53-1,27,27,0,0,1-.93-2.93,42.46,42.46,0,0,1-5.33-5.93,13,13,0,0,1-2.52-4.88A5.62,5.62,0,0,1,371.69,268.2Z"/><path class="cls-23" d="M381.77,289.07l-.48-4.51a5.77,5.77,0,0,1,.33,3.71,11.42,11.42,0,0,0-2.35-2.31,6.24,6.24,0,0,1,2,2.69,13.57,13.57,0,0,0-2.52-.51"/><path class="cls-54" d="M378.51,257.79a8.2,8.2,0,0,0-1.45-6.75c-2.08-2.45-5.69-2.86-8.91-2.68a15.65,15.65,0,0,0-6,1.29,7.28,7.28,0,0,0-4,4.46,8.29,8.29,0,0,0-.11,3,14.43,14.43,0,0,0,3.12,7.31,1.15,1.15,0,0,0,1.17.51c3.82-.13,7.65-.18,11.47-.38,2.05-.11,2.1-.18,3-2C377.49,261.14,378.51,259.32,378.51,257.79Z"/><path class="cls-55" d="M360.75,256.69a18.79,18.79,0,0,0,.68,9c.75,2.63,1.83,5.3,3.9,7.11a5.3,5.3,0,0,0,2.69,1.35,4.53,4.53,0,0,0,2.3-.32,7.73,7.73,0,0,0,3.86-3.94,29.29,29.29,0,0,0,1.74-5.37,31.62,31.62,0,0,0,1.32-6.13,8.05,8.05,0,0,0-1.71-5.87C370.73,247.09,362.15,250.14,360.75,256.69Z"/><path class="cls-56" d="M377.07,255.87a22,22,0,0,0-2.87-1,2.09,2.09,0,0,0-1.05-.09,1.1,1.1,0,0,0-.61.41,2.4,2.4,0,0,0-1.94-.25c-3.28.79-5.91,3.6-9.27,3.87a1.06,1.06,0,0,0-.87.68c-.12.26,0,.62,0,.9,0,.79,1.64,1.08,2.43,1.13,2.79.17,5.23-.64,7.95-1.3a5,5,0,0,0,1.37-.45,27.28,27.28,0,0,1-1,8.73,23.6,23.6,0,0,1-2.33,4.92,7.11,7.11,0,0,1-.44.7,4.72,4.72,0,0,0,1.85-.35,7.73,7.73,0,0,0,3.86-3.94,29.29,29.29,0,0,0,1.74-5.37,31.62,31.62,0,0,0,1.32-6.13A10.53,10.53,0,0,0,377.07,255.87Z"/><path class="cls-54" d="M371.5,256.75a9.23,9.23,0,0,0,3.5-4.54,1.32,1.32,0,0,0,.06-.83,1,1,0,0,0-.48-.48,12.64,12.64,0,0,0-6.4-1.75,6.51,6.51,0,0,0-4.54,1.54c-1.67,1.54-6,7.82-2.59,9.19C364.22,261.16,368.83,258.76,371.5,256.75Z"/><path class="cls-54" d="M375.59,257.8a6.35,6.35,0,0,1-2.64-.91,2.86,2.86,0,0,1-1.26-2.55,3.87,3.87,0,0,1,.93-1.89c.39-.51.87-1,1.48-1s1,.48,1.52.69,1.44.19,1.79.8a2,2,0,0,1,.19.94C377.68,256.12,378.48,258.31,375.59,257.8Z"/><path class="cls-57" d="M373.48,271.76a6.63,6.63,0,0,1-5.33,3,6.42,6.42,0,0,1-5-3.13,15.17,15.17,0,0,1-1.92-5.75c1.36,1.46,3.51,1.87,5.5,1.92a20.9,20.9,0,0,0,4.6-.42c1.54-.31,3-1.11,4.5-1.4A12.54,12.54,0,0,1,373.48,271.76Z"/><path class="cls-23" d="M373.78,269a9.35,9.35,0,0,1-4.88,1.48,15.64,15.64,0,0,1-5.08-.74"/><path class="cls-23" d="M370.73,272.5a7.21,7.21,0,0,1-4.06.27"/><path class="cls-34" d="M373.9,292.05q.32,5.83.47,11.67a1.46,1.46,0,0,1-.32,1.21,1.16,1.16,0,0,1-.71.18c-2.35.07-6.14.14-8.49.21l-.27-11.74a3.27,3.27,0,0,1,.28-1.74C365.37,291,373.91,292.27,373.9,292.05Z"/><path class="cls-55" d="M374.21,299l-2.81-.62a9,9,0,0,0-2.13-.3,2.46,2.46,0,0,0-2,1,4.23,4.23,0,0,0-.43,2.56c.07,1.58.28,3.39,1.46,4.26a4.29,4.29,0,0,0,2.06.63,24.12,24.12,0,0,0,7.44.1c.13-1.76.79-5.7,0-7.3-.6-1.2-3.2-1.39-3.63-2.84Z"/><path class="cls-17" d="M150.69,165.46c-1.33-1.13-2-.48-2.91.47s-2.14,1.3-3.55,1.89a33.71,33.71,0,0,0-8.51,5.14,68.13,68.13,0,0,0-5.77,5.63c-2.19,2.31-4.45,4.82-5.41,7.78a12.47,12.47,0,0,0-1.13,2.59,6.86,6.86,0,0,0-.53,3.87,5.73,5.73,0,0,0,1.39,2.31,23,23,0,0,0,9.17,6,57,57,0,0,0,10.72,2.61,9.81,9.81,0,0,1,0-7.36l-7.11-4.57a1.08,1.08,0,0,1-.49-.48,1,1,0,0,1,.07-.74,7.94,7.94,0,0,1,3.63-4.23,5.1,5.1,0,0,0,1.38-.89,3.46,3.46,0,0,0,.59-1,27.72,27.72,0,0,0,1-2.94,46.22,46.22,0,0,0,5.95-5.92,12.75,12.75,0,0,0,2.81-4.88A5.25,5.25,0,0,0,150.69,165.46Z"/><path class="cls-34" d="M148.23,189.32q-.34,5.82-.53,11.66a1.41,1.41,0,0,0,.36,1.21,1.32,1.32,0,0,0,.79.18c2.62.08,6.85.15,9.48.22l.3-11.74a3,3,0,0,0-.32-1.74C157.74,188.25,148.22,189.54,148.23,189.32Z"/><path class="cls-55" d="M147.88,196.3l3.14-.63a11.23,11.23,0,0,1,2.38-.29,2.89,2.89,0,0,1,2.28,1,3.87,3.87,0,0,1,.48,2.56c-.08,1.58-.31,3.39-1.63,4.26a5,5,0,0,1-2.3.64,30.37,30.37,0,0,1-8.3.1c-.15-1.77-.88-5.71,0-7.3.66-1.21,3.56-1.39,4-2.85Z"/><path class="cls-23" d="M139.45,186.33l.53-4.51a5.27,5.27,0,0,0-.37,3.72,12.06,12.06,0,0,1,2.63-2.31,6.35,6.35,0,0,0-2.27,2.68,17.78,17.78,0,0,1,2.81-.5"/><path class="cls-58" d="M162,155.06a8.21,8.21,0,0,0-1.44-6.75c-2.08-2.46-5.7-2.86-8.92-2.69a15.76,15.76,0,0,0-6,1.3,7.17,7.17,0,0,0-4,4.46,8,8,0,0,0-.12,3,14.37,14.37,0,0,0,3.13,7.31,1.38,1.38,0,0,0,.47.43,1.6,1.6,0,0,0,.69.08c3.82-.12,7.66-.18,11.47-.38,2.06-.1,2.11-.17,3-2C160.93,158.4,162,156.59,162,155.06Z"/><path class="cls-55" d="M144.19,154a18.76,18.76,0,0,0,.69,9c.74,2.64,1.83,5.31,3.89,7.11a5.35,5.35,0,0,0,2.7,1.36,4.5,4.5,0,0,0,2.29-.32,7.77,7.77,0,0,0,3.87-4,29.94,29.94,0,0,0,1.73-5.36,30.89,30.89,0,0,0,1.32-6.13,8.08,8.08,0,0,0-1.7-5.88C154.17,144.36,145.59,147.41,144.19,154Z"/><path class="cls-59" d="M144.28,153.56a5.6,5.6,0,0,0,1.24,1,20.63,20.63,0,0,0,3.33,1.65c.66.28,1.32.56,2,.78a17.75,17.75,0,0,0,4.86.77,26.81,26.81,0,0,1-1,8.08,24.08,24.08,0,0,1-2.32,4.92c-.19.32-.34.53-.44.7a4.82,4.82,0,0,0,1.84-.35,7.77,7.77,0,0,0,3.87-4,29.94,29.94,0,0,0,1.73-5.36,30.89,30.89,0,0,0,1.32-6.13,10.49,10.49,0,0,0-.17-2.5,20.89,20.89,0,0,0-2.86-1,2.23,2.23,0,0,0-1.05-.1,1.16,1.16,0,0,0-.73.6,3.46,3.46,0,0,0-.4-.82,3,3,0,0,0-1-.89,6.47,6.47,0,0,0-2.9-.78,27.79,27.79,0,0,0-3,.1,4.63,4.63,0,0,0-2.34.52c-.59.39-.66.67-1.28,1Z"/><path class="cls-58" d="M158.88,156.6c-3.66.36-7.44-1.15-11-2.79-1.51-.7-3.28-1.78-3.54-3.64a3.18,3.18,0,0,1,1.17-2.86,6,6,0,0,1,2.7-1c3.42-.64,7.36-.62,10.25,2.17S163.77,156.12,158.88,156.6Z"/><path class="cls-57" d="M147,168.43a6.63,6.63,0,0,0,5.33,3,6.39,6.39,0,0,0,5-3.13,15.17,15.17,0,0,0,1.92-5.75c-1.36,1.46-3.5,1.87-5.5,1.92a20.9,20.9,0,0,1-4.6-.42c-1.54-.31-3-1.11-4.5-1.4A12.54,12.54,0,0,0,147,168.43Z"/><path class="cls-23" d="M146.67,165.66a9.37,9.37,0,0,0,4.88,1.48,15.73,15.73,0,0,0,5.09-.74"/><path class="cls-23" d="M149.72,169.17a7.24,7.24,0,0,0,4.07.27"/><path class="cls-60" d="M887.11,265.43c.12-3.69.36-7.38.64-11.07,0-.17,0-.35,0-.53l.12-1.38a61.23,61.23,0,0,1,14.9,1.65c-1.11,1.68-3.45,1.82-5.33,2.5a10.83,10.83,0,0,0-5.22,4.38,21.06,21.06,0,0,0-2.2,4.65Z"/><path class="cls-31" d="M900.74,216.84c-1.33-1.13-2-.48-2.91.47s-2.14,1.3-3.55,1.89a33.71,33.71,0,0,0-8.51,5.14A68.13,68.13,0,0,0,880,230c-2.19,2.31-4.45,4.82-5.41,7.78a12.18,12.18,0,0,0-1.13,2.59,6.86,6.86,0,0,0-.53,3.87,5.73,5.73,0,0,0,1.39,2.31,22.84,22.84,0,0,0,9.17,6,56.1,56.1,0,0,0,10.72,2.61,9.79,9.79,0,0,1,0-7.35l-7.11-4.58a1,1,0,0,1-.49-.48,1,1,0,0,1,.07-.74,8,8,0,0,1,3.63-4.23,4.88,4.88,0,0,0,1.38-.89,3.46,3.46,0,0,0,.59-1,27.55,27.55,0,0,0,1-2.93,45.67,45.67,0,0,0,5.95-5.93,12.6,12.6,0,0,0,2.8-4.88A5.22,5.22,0,0,0,900.74,216.84Z"/><path class="cls-34" d="M898.28,240.7c-.23,3.89-.41,7.77-.53,11.67a1.4,1.4,0,0,0,.36,1.2,1.33,1.33,0,0,0,.79.19c2.62.07,6.85.14,9.47.21l.3-11.74a2.94,2.94,0,0,0-.31-1.74C907.79,239.63,898.27,240.92,898.28,240.7Z"/><path class="cls-55" d="M897.93,247.68l3.14-.62a10.55,10.55,0,0,1,2.38-.3,2.89,2.89,0,0,1,2.28,1,3.89,3.89,0,0,1,.48,2.57c-.08,1.57-.31,3.38-1.63,4.25a5,5,0,0,1-2.3.64,30.37,30.37,0,0,1-8.3.1c-.15-1.76-.88-5.7,0-7.3.65-1.21,3.56-1.39,4-2.85Z"/><path class="cls-23" d="M889.5,237.72l.53-4.51a5.24,5.24,0,0,0-.37,3.71,12.27,12.27,0,0,1,2.62-2.31A6.36,6.36,0,0,0,890,237.3a16.73,16.73,0,0,1,2.81-.51"/><path class="cls-49" d="M912.51,207.26a5.94,5.94,0,0,0-1.44-5.62c-2.08-2-5.7-2.38-8.92-2.24a18.61,18.61,0,0,0-6,1.08,6.52,6.52,0,0,0-4,3.71,5.48,5.48,0,0,0-.11,2.48,11,11,0,0,0,3.12,6.09,1.52,1.52,0,0,0,.47.35,2,2,0,0,0,.69.07c3.82-.11,7.66-.15,11.48-.32,2-.09,2.1-.14,3-1.7C911.49,210,912.51,208.53,912.51,207.26Z"/><path class="cls-55" d="M894.24,205.34a18.88,18.88,0,0,0,.68,9c.75,2.64,1.84,5.31,3.9,7.11a5.27,5.27,0,0,0,2.7,1.36,4.5,4.5,0,0,0,2.29-.32,7.73,7.73,0,0,0,3.86-3.94,29.54,29.54,0,0,0,1.74-5.37,30.89,30.89,0,0,0,1.32-6.13,8.08,8.08,0,0,0-1.7-5.88C904.22,195.74,895.64,198.79,894.24,205.34Z"/><path class="cls-57" d="M897.14,220.45a6.61,6.61,0,0,0,5.33,3,6.45,6.45,0,0,0,5-3.13,15.22,15.22,0,0,0,1.92-5.75c-1.36,1.45-3.51,1.87-5.5,1.91a20.3,20.3,0,0,1-4.6-.41c-1.54-.32-3-1.11-4.5-1.4A12.46,12.46,0,0,0,897.14,220.45Z"/><path class="cls-23" d="M896.84,217.69a9.53,9.53,0,0,0,4.88,1.48,15.64,15.64,0,0,0,5.08-.75"/><path class="cls-23" d="M899.89,221.19a7.12,7.12,0,0,0,4.06.27"/><path class="cls-61" d="M907.67,218.52a29.54,29.54,0,0,0,1.74-5.37,30.89,30.89,0,0,0,1.32-6.13,7.71,7.71,0,0,0-9.15-8.54,8.84,8.84,0,0,1,4.66,6.21,17.62,17.62,0,0,1,.13,3.63c0,1.26-.09,2.51-.13,3.77a22.62,22.62,0,0,1-.83,6.3c-.36,1.08-2.08,3-2.55,4.34a5.39,5.39,0,0,0,.95-.27A7.73,7.73,0,0,0,907.67,218.52Z"/><path class="cls-41" d="M465.9,179.94a14.41,14.41,0,0,0,7.7.53"/><path class="cls-62" d="M695.42,177.76c.09,1.37.19,1.14.31,2.52a36.2,36.2,0,0,1,5.68.95,3.12,3.12,0,0,1,1.3.46,8.71,8.71,0,0,1,1,1.35,4.37,4.37,0,0,0,3.09,1l7.61.42a3.61,3.61,0,0,0,1.73-.19,1.24,1.24,0,0,0,.76-1.42,6.18,6.18,0,0,1,3.76,3.9,14.16,14.16,0,0,1,.73,4.63,5.44,5.44,0,0,0,2.69-2c.92-1.43.83-3.27.71-5-.22-3-.43-4.45-.64-7.47Z"/><path class="cls-34" d="M704.93,166.84q-.34,6.33-.53,12.67a1.61,1.61,0,0,0,.36,1.31,1.27,1.27,0,0,0,.79.2c2.62.08,6.85.16,9.48.23l.3-12.75a3.55,3.55,0,0,0-.32-1.89C714.44,165.68,704.92,167.08,704.93,166.84Z"/><path class="cls-55" d="M704.67,173l2.81-.5a10.85,10.85,0,0,1,2.13-.23,2.71,2.71,0,0,1,2,.77,2.76,2.76,0,0,1,.43,2c-.07,1.26-.28,2.71-1.46,3.4a4.94,4.94,0,0,1-2.07.51,29.89,29.89,0,0,1-7.44.08c-.14-1.41-.79-4.56,0-5.84.59-1,3.2-1.11,3.64-2.27Z"/><path class="cls-55" d="M715.34,171.92l-2.82-.5a10.85,10.85,0,0,0-2.13-.23,2.71,2.71,0,0,0-2,.77,2.81,2.81,0,0,0-.43,2c.07,1.26.28,2.71,1.46,3.4a4.94,4.94,0,0,0,2.07.51,29.89,29.89,0,0,0,7.44.08c.14-1.41.79-4.56,0-5.84-.59-1-3.2-1.11-3.63-2.27Z"/><path class="cls-5" d="M705.14,148.55c-1.09-.81-.84-1.45-1.77-1-1.4.67-3.37,1.8-4.38,2.39a25.14,25.14,0,0,0-6,4.81,52.35,52.35,0,0,0-3.86,5c-1.45,2-2.94,4.23-3.41,6.7a10.92,10.92,0,0,0-.64,2.18,6.1,6.1,0,0,0-.07,3.17,4.64,4.64,0,0,0,1.23,1.76,17.29,17.29,0,0,0,7.37,4.14,41.9,41.9,0,0,0,8.29,1.47,9.26,9.26,0,0,1-.57-6.24c-1.91-1.05-3.85-2-5.76-3.05a.7.7,0,0,1-.41-1,6.37,6.37,0,0,1,2.37-3.69,3.83,3.83,0,0,0,1-.83,3,3,0,0,0,.36-.89,24.82,24.82,0,0,0,.54-2.45,35.92,35.92,0,0,0,4-5.25,10.48,10.48,0,0,0,1.7-4.16C705.29,150.12,706.33,149.43,705.14,148.55Z"/><path class="cls-5" d="M714.14,147.53c1.09-.81,1.23.45,1.83,1.29s-.8-2.13,1.19-.37,5.84,4.39,7.58,6.3a52.35,52.35,0,0,1,3.86,5c1.45,2,2.94,4.23,3.41,6.7a10.92,10.92,0,0,1,.64,2.18,6.1,6.1,0,0,1,.07,3.17,4.64,4.64,0,0,1-1.23,1.76,17.29,17.29,0,0,1-7.37,4.14c-2.7.78-3,.2-5.81.42a8.59,8.59,0,0,0,.58-6c1.9-1,1.36-1.23,3.27-2.28a.91.91,0,0,0,.4-.35c.09-.18,1-.43,1-.63a27.49,27.49,0,0,0-.62-3.41,16.64,16.64,0,0,0-.57-2.34,25.25,25.25,0,0,1-1.3-2.47c-.23-.81-1.65-1.69-1.79-2.52-1.47-1.61-3.73-.47-4.89-2.35a10.34,10.34,0,0,1-1.7-4.16A4.48,4.48,0,0,1,714.14,147.53Z"/><path class="cls-23" d="M719.11,171.63l2-1.39a4,4,0,0,0,1.92-2.26,3.84,3.84,0,0,0-.14-1.61,44,44,0,0,0-2.7-8.74"/><path class="cls-23" d="M695.56,169.75a1.45,1.45,0,0,1-.89-1.72,17.34,17.34,0,0,1,.73-2,14.62,14.62,0,0,0,.3-2.3,7.72,7.72,0,0,1,1.95-4.25"/><path class="cls-63" d="M706,153.46a4.5,4.5,0,0,0,2.84,2.06,4.08,4.08,0,0,0,2.76-1c.63-.46.88-1.4,1.32-2.05a12.32,12.32,0,0,0,1.61-5.66,6.2,6.2,0,0,0-1-1.67c-.2-.24-5.37.42-5.69.42-2.53,0-5-.69-4.52,2A12.27,12.27,0,0,0,706,153.46Z"/><path class="cls-55" d="M700.89,135.23a15.78,15.78,0,0,0,.69,8.21,12.83,12.83,0,0,0,3.89,6.51,5.59,5.59,0,0,0,2.7,1.24,5,5,0,0,0,2.29-.29,7.46,7.46,0,0,0,3.87-3.61,26,26,0,0,0,1.73-4.91,26.28,26.28,0,0,0,1.32-5.61,7,7,0,0,0-1.7-5.38C710.87,126.45,702.3,129.24,700.89,135.23Z"/><path d="M700.82,131.67a14.15,14.15,0,0,0-1,7.91c5.47,3,11.82,2.35,17.74,1.08.3-2.89.55-6.08-.83-8.46a9,9,0,0,0-3.56-3.16C709.08,126.75,703.42,126.29,700.82,131.67Z"/><path d="M717.49,131.29a6.74,6.74,0,0,0-1.12-1.88,6.21,6.21,0,0,0-3.73-1.91,4.84,4.84,0,0,0-3.2.46A2.77,2.77,0,0,0,708,130.7a4.55,4.55,0,0,0,2,2.53,15.69,15.69,0,0,0,3.33,2.1c.82.34,1.69.54,2.5.87.5.2,2.26,2.15,2.26,1.55A24,24,0,0,0,717.49,131.29Z"/><path class="cls-64" d="M712.38,139.7l-7.67-.31c-1.1,0-2.9-.47-4-.16-.55.17-.67.11-.34.8.2.45-.15,1.48.27,1.7,3.18,1.68,7.84,1.84,11.47,1.93a14.21,14.21,0,0,1-.78,2.42,21.55,21.55,0,0,1-2.32,4.5c-.19.29-.34.48-.44.64a5.2,5.2,0,0,0,1.84-.32,7.46,7.46,0,0,0,3.87-3.61,26,26,0,0,0,1.73-4.91c.55-1.85.69-.87.82-2.78Z"/><path class="cls-57" d="M705.36,149.77c1.8,1.52,4.59,2.13,6.54.8a7.21,7.21,0,0,0,1.69-1.79,9.48,9.48,0,0,0,2.07-4.76,11.46,11.46,0,0,1-7,1.88,17,17,0,0,1-3.62-.57c-.85-.23-2.4-1.14-3.2-1A11.94,11.94,0,0,0,705.36,149.77Z"/><path class="cls-23" d="M704.06,146.34a17.84,17.84,0,0,0,4.75,1.21,7.36,7.36,0,0,0,4.7-1.08"/><path class="cls-23" d="M706.05,149.05a14.56,14.56,0,0,0,2.85.58,5.18,5.18,0,0,0,2.82-.54"/></g></g></svg>